<?xml version="1.0" encoding="UTF-8" standalone="no"?>
<!-- Created with Inkscape (http://www.inkscape.org/) -->

<svg
   width="233.67889mm"
   height="24.779882mm"
   viewBox="0 0 233.67891 24.779882"
   version="1.1"
   id="svg5"
   xmlns="http://www.w3.org/2000/svg"
   xmlns:svg="http://www.w3.org/2000/svg">
  <defs
     id="defs2">
    <rect
       x="252.14571"
       y="16.354752"
       width="410.29419"
       height="263.3331"
       id="rect88961" />
    <rect
       x="117.03084"
       y="281.0965"
       width="935.73163"
       height="212.44939"
       id="rect31747" />
    <rect
       x="86.556061"
       y="213.61255"
       width="624.06879"
       height="132.51698"
       id="rect22787" />
    <rect
       x="105.64557"
       y="220.35918"
       width="602.97736"
       height="106.19207"
       id="rect16797" />
  </defs>
  <g
     id="layer1"
     transform="translate(-4.5915125,-93.761219)">
    <text
       xml:space="preserve"
       transform="scale(0.26458333)"
       id="text16795"
       style="font-size:64px;line-height:1.25;font-family:sans-serif;white-space:pre;shape-inside:url(#rect16797)" />
    <text
       xml:space="preserve"
       transform="scale(0.26458333)"
       id="text22785"
       style="font-size:64px;line-height:1.25;font-family:sans-serif;white-space:pre;shape-inside:url(#rect22787)" />
    <text
       xml:space="preserve"
       transform="matrix(0.26458333,0,0,0.26458333,-9.4508545,16.212982)"
       id="text31745"
       style="font-size:96px;line-height:1.25;font-family:sans-serif;letter-spacing:-5.31px;white-space:pre;shape-inside:url(#rect31747);fill:#f9f9f9"><tspan
         x="117.03125"
         y="366.0332"
         id="tspan102008"><tspan
           style="font-weight:bold;-inkscape-font-specification:'sans-serif, Bold'"
           id="tspan102006">How dare you?!?</tspan></tspan></text>
    <path
       d="m 14.679858,102.65397 c -0.270144,-0.28562 -0.629376,-0.44293 -1.011419,-0.44293 -0.213072,0 -0.415228,0.0499 -0.597107,0.13861 -0.219146,-0.53849 -0.725773,-0.9166 -1.314466,-0.91666 -0.168811,0 -0.330822,0.0313 -0.481318,0.0883 l 3.3e-5,-4.498283 c -6.4e-5,-0.833848 -0.641715,-1.512259 -1.4303825,-1.512359 -0.788729,0 -1.430381,0.678444 -1.430381,1.512359 v 4.498243 c -0.150463,-0.057 -0.312412,-0.0883 -0.481223,-0.0883 -0.78873,0 -1.430382,0.67845 -1.430382,1.51233 v 0.21701 l -0.663386,5.1e-4 c -0.688316,5.1e-4 -1.248314,0.59302 -1.248314,1.32076 v 2.14328 c -3.1e-5,0.87151 0.198234,1.74162 0.573286,2.51629 0.32576,0.67276 0.785693,1.27745 1.338256,1.76179 v 1.73162 h 6.6841305 v -1.73175 c 0.552563,-0.48434 1.012494,-1.08903 1.338256,-1.76179 0.37505,-0.77464 0.573284,-1.64472 0.573253,-2.51613 l 9.5e-5,-2.9035 c 3.2e-5,-0.40396 -0.148755,-0.78374 -0.418931,-1.06939 z m -0.530228,3.9729 c 6.4e-5,1.43673 -0.627857,2.76154 -1.722733,3.63473 l -0.188775,0.15055 v 1.22092 H 7.4521495 v -1.22085 l -0.188744,-0.15056 c -1.094876,-0.87318 -1.722829,-2.19803 -1.722765,-3.63482 v -2.14328 c 0,-0.17484 0.134549,-0.31716 0.299881,-0.31729 l 0.662627,-5.1e-4 v 1.92137 h 0.949096 l 6.3e-5,-3.14182 c 0,-0.2806 0.215888,-0.50889 0.481223,-0.50889 0.265399,3e-5 0.481287,0.22832 0.481287,0.50889 v 1.63 h 0.949095 v -7.552263 c 0,-0.280604 0.215887,-0.508892 0.481222,-0.508892 0.2653995,3.3e-5 0.4813505,0.228355 0.4813815,0.508892 l -6.3e-5,7.552233 h 6.3e-5 0.949032 6.4e-5 v -1.63 c 0,-0.2806 0.215888,-0.50889 0.481223,-0.50889 0.265399,3e-5 0.481287,0.22832 0.481287,0.50889 v 1.63 h 0.949095 v -0.85198 c 0,-0.28057 0.215887,-0.50882 0.481254,-0.50882 0.128539,0 0.249422,0.053 0.340314,0.14904 0.09089,0.0961 0.140941,0.22388 0.140941,0.35978 z"
       id="path84013"
       style="fill:#d40000;stroke-width:0.264582" />
    <text
       xml:space="preserve"
       transform="scale(0.26458333)"
       id="text88959"
       style="font-size:64px;line-height:1.25;font-family:sans-serif;white-space:pre;shape-inside:url(#rect88961)" />
  </g>
</svg>
